<svg id="logo" xmlns="http://www.w3.org/2000/svg" viewBox="0 0 200.5 36.3"><defs><style>.cls-1{fill:#0bbbef}</style></defs><title>logo</title><path class="cls-1" d="M103.78 0h7.45v36.3h-7.45zM45.6 0H6.05A6.05 6.05 0 0 0 0 6.05V36.3h7.11v-28a2.42 2.42 0 0 1 2.42-2.39h12.74V36.3h7.11V5.91h12.74a2.42 2.42 0 0 1 2.42 2.42v28h7.11V6.05A6.05 6.05 0 0 0 45.6 0zm13.62 6.05v24.2a6.05 6.05 0 0 0 6.05 6.05h30.85v-5.91H68.75A2.42 2.42 0 0 1 66.33 28v-6.89h28.3v-5.92h-28.3V8.33a2.42 2.42 0 0 1 2.42-2.42h27.37V0H65.27a6.05 6.05 0 0 0-6.05 6.05zM151 0h-31.89v5.91h26.35l-25.27 22.45c-4.05 3.47-1.42 7.94 1.95 7.94h32.2v-5.91h-26.87l25.32-22.45C156.87 4.27 154.41 0 151 0zm42.38 0v28a2.42 2.42 0 0 1-2.38 2.39h-20.35a2.42 2.42 0 0 1-2.42-2.39V0h-7.09v30.25a6.05 6.05 0 0 0 6.05 6.05h27.25a6.05 6.05 0 0 0 6.05-6.05V0z"/></svg>